{"title":"Mani Kaul - 1970 - Uski Roti","uid":11161612,"size":1459314973,"categoryP":"video","categoryS":"movies","magnet":"?xt=urn:btih:4485711c991ecbe243d9b4f6a4ca3f08593a8bb4&amp;dn=Mani+Kaul+-+1970+-+Uski+Roti&amp;tr=udp%3A%2F%2Ftracker.openbittorrent.com%3A80&amp;tr=udp%3A%2F%2Fopen.demonii.com%3A1337&amp;tr=udp%3A%2F%2Ftracker.coppersurfer.tk%3A6969&amp;tr=udp%3A%2F%2Fexodus.desync.com%3A6969","seeders":4,"leechers":0,"uploader":"rpessoa","files":2,"time":1412555316,"description":"A woman waits for her truck driver husband, everyday, with his daily bread. Her concern for their dying relationship and her sister grows fast as she starts to doubt his loyalty.\n\nEnglish and portuguese subs\n &lt;a href=&quot;\nhttp://www.imdb.com/title/tt0066514/&quot; rel=&quot;nofollow&quot; target=&quot;_NEW&quot;&gt;\nhttp://www.imdb.com/title/tt0066514/&lt;/a&gt;\n\nGeneral\nComplete name                            : Uski Roti (1970)/Uski Roti (1970).avi\nFormat                                   : AVI\nFormat/Info                              : Audio Video Interleave\nFile size                                : 1.36 GiB\nDuration                                 : 1h 41mn\nOverall bit rate                         : 1 921 Kbps\n\nVideo\nID                                       : 0\nFormat                                   : MPEG-4 Visual\nFormat profile                           : Advanced Simple@L5\nFormat settings, BVOP                    : 2\nFormat settings, QPel                    : No\nFormat settings, GMC                     : No warppoints\nFormat settings, Matrix                  : Default (MPEG)\nCodec ID                                 : XVID\nCodec ID/Hint                            : XviD\nDuration                                 : 1h 41mn\nBit rate                                 : 1 688 Kbps\nWidth                                    : 624 pixels\nHeight                                   : 416 pixels\nDisplay aspect ratio                     : 3:2\nFrame rate                               : 29.970 fps\nColor space                              : YUV\nChroma subsampling                       : 4:2:0\nBit depth                                : 8 bits\nScan type                                : Progressive\nCompression mode                         : Lossy\nBits/(Pixel*Frame)                       : 0.217\nStream size                              : 1.19 GiB (88%)\nWriting library                          : XviD 1.2.1 (UTC 2008-12-04)\n\nAudio\nID                                       : 1\nFormat                                   : AC-3\nFormat/Info                              : Audio Coding 3\nMode extension                           : CM (complete main)\nCodec ID                                 : 2000\nDuration                                 : 1h 41mn\nBit rate mode                            : Constant\nBit rate                                 : 224 Kbps\nChannel(s)                               : 2 channels\nChannel positions                        : Front: L R\nSampling rate                            : 48.0 KHz\nBit depth                                : 16 bits\nCompression mode                         : Lossy\nStream size                              : 162 MiB (12%)\nAlignment                                : Aligned on interleaves\nInterleave, duration                     : 64 ms (1.92 video frames)\nInterleave, preload duration             : 192 ms\nTitle                                    : Track 1 - [Hindi]","torrent":{"xt":"urn:btih:4485711c991ecbe243d9b4f6a4ca3f08593a8bb4","amp;dn":"Mani+Kaul+-+1970+-+Uski+Roti","amp;tr":["udp%3A%2F%2Ftracker.openbittorrent.com%3A80","udp%3A%2F%2Fopen.demonii.com%3A1337","udp%3A%2F%2Ftracker.coppersurfer.tk%3A6969","udp%3A%2F%2Fexodus.desync.com%3A6969"],"infoHash":"4485711c991ecbe243d9b4f6a4ca3f08593a8bb4","infoHashBuffer":{"type":"Buffer","data":[68,133,113,28,153,30,203,226,67,217,180,246,164,202,63,8,89,58,139,180]},"announce":[],"urlList":[]}}